<svg width="360" height="145" viewBox="0 0 360 145" fill="none" xmlns="http://www.w3.org/2000/svg">
<g clip-path="url(#clip0_21_440)">
<path d="M0 0.200012L8.6 6.08002C17.2 11.92 34.4 23.68 51.52 28.68C68.68 33.68 85.72 31.92 102.88 27.4C120 22.88 137.2 15.52 154.32 16C171.48 16.48 188.52 24.72 205.68 23.12C222.8 21.52 240 10.08 257.12 9.92001C274.28 9.80001 291.32 21 308.48 24.2C325.6 27.4 342.8 22.6 351.4 20.2L360 17.8V145.4H351.4C342.8 145.4 325.6 145.4 308.48 145.4C291.32 145.4 274.28 145.4 257.12 145.4C240 145.4 222.8 145.4 205.68 145.4C188.52 145.4 171.48 145.4 154.32 145.4C137.2 145.4 120 145.4 102.88 145.4C85.72 145.4 68.68 145.4 51.52 145.4C34.4 145.4 17.2 145.4 8.6 145.4H0V0.200012Z" fill="#B1E5F2"/>
<path d="M0 58.6L8.6 52.72C17.2 46.88 34.4 35.12 51.52 37.08C68.68 39 85.72 54.6 102.88 56.6C120 58.6 137.2 47 154.32 42.48C171.48 37.92 188.52 40.48 205.68 42C222.8 43.52 240 44.08 257.12 45.8C274.28 47.52 291.32 50.48 308.48 51C325.6 51.52 342.8 49.68 351.4 48.72L360 47.8V145.4H351.4C342.8 145.4 325.6 145.4 308.48 145.4C291.32 145.4 274.28 145.4 257.12 145.4C240 145.4 222.8 145.4 205.68 145.4C188.52 145.4 171.48 145.4 154.32 145.4C137.2 145.4 120 145.4 102.88 145.4C85.72 145.4 68.68 145.4 51.52 145.4C34.4 145.4 17.2 145.4 8.6 145.4H0V58.6Z" fill="#74C9F0"/>
<path d="M0 77L8.6 76.2C17.2 75.4 34.4 73.8 51.52 69.32C68.68 64.88 85.72 57.52 102.88 58.32C120 59.12 137.2 68.08 154.32 72.12C171.48 76.2 188.52 75.4 205.68 72.6C222.8 69.8 240 65 257.12 65.52C274.28 66.08 291.32 71.92 308.48 74C325.6 76.08 342.8 74.32 351.4 73.48L360 72.6V145.4H351.4C342.8 145.4 325.6 145.4 308.48 145.4C291.32 145.4 274.28 145.4 257.12 145.4C240 145.4 222.8 145.4 205.68 145.4C188.52 145.4 171.48 145.4 154.32 145.4C137.2 145.4 120 145.4 102.88 145.4C85.72 145.4 68.68 145.4 51.52 145.4C34.4 145.4 17.2 145.4 8.6 145.4H0V77Z" fill="#40A9EF"/>
<path d="M0 98.2L8.6 100.08C17.2 101.92 34.4 105.68 51.52 104.72C68.68 103.8 85.72 98.2 102.88 92.28C120 86.32 137.2 80.08 154.32 79.4C171.48 78.72 188.52 83.68 205.68 84.48C222.8 85.28 240 81.92 257.12 80.6C274.28 79.28 291.32 79.92 308.48 85.32C325.6 90.72 342.8 100.88 351.4 105.92L360 111V145.4H351.4C342.8 145.4 325.6 145.4 308.48 145.4C291.32 145.4 274.28 145.4 257.12 145.4C240 145.4 222.8 145.4 205.68 145.4C188.52 145.4 171.48 145.4 154.32 145.4C137.2 145.4 120 145.4 102.88 145.4C85.72 145.4 68.68 145.4 51.52 145.4C34.4 145.4 17.2 145.4 8.6 145.4H0V98.2Z" fill="#3B85E7"/>
<path d="M0 107.8L8.6 107.52C17.2 107.28 34.4 106.72 51.52 109.52C68.68 112.32 85.72 118.48 102.88 120.4C120 122.32 137.2 120.08 154.32 116.08C171.48 112.08 188.52 106.32 205.68 105.4C222.8 104.48 240 108.32 257.12 110.28C274.28 112.2 291.32 112.2 308.48 114.68C325.6 117.12 342.8 122.08 351.4 124.52L360 127V145.4H351.4C342.8 145.4 325.6 145.4 308.48 145.4C291.32 145.4 274.28 145.4 257.12 145.4C240 145.4 222.8 145.4 205.68 145.4C188.52 145.4 171.48 145.4 154.32 145.4C137.2 145.4 120 145.4 102.88 145.4C85.72 145.4 68.68 145.4 51.52 145.4C34.4 145.4 17.2 145.4 8.6 145.4H0V107.8Z" fill="#6159D0"/>
</g>
<defs>
<clipPath id="clip0_21_440">
<rect width="360" height="145" fill="white"/>
</clipPath>
</defs>
</svg>
